<?xml version="1.0" standalone="no"?>
<!DOCTYPE svg PUBLIC "-//W3C//DTD SVG 20010904//EN"
 "http://www.w3.org/TR/2001/REC-SVG-20010904/DTD/svg10.dtd">
<svg version="1.0" xmlns="http://www.w3.org/2000/svg"
 width="512.000000pt" height="512.000000pt" viewBox="0 0 512.000000 512.000000"
 preserveAspectRatio="xMidYMid meet">

<g transform="translate(0.000000,512.000000) scale(0.100000,-0.100000)"
fill="#000000" stroke="none">
<path d="M2395 4473 c-284 -33 -478 -89 -701 -201 -379 -191 -679 -498 -864
-884 -84 -176 -129 -318 -167 -528 -24 -133 -24 -467 0 -600 38 -210 83 -352
167 -528 192 -400 504 -712 902 -901 179 -86 320 -130 528 -168 133 -24 467
-24 600 0 210 38 351 83 529 168 400 191 708 500 901 901 379 791 176 1732
-495 2296 -352 296 -797 456 -1255 450 -63 0 -128 -3 -145 -5z m469 -343 c648
-130 1137 -622 1268 -1275 30 -148 32 -421 4 -570 -108 -586 -511 -1053 -1071
-1242 -178 -60 -295 -77 -510 -77 -158 0 -208 4 -295 22 -375 80 -691 265
-921 540 -181 217 -295 456 -351 737 -32 159 -32 434 0 590 101 502 405 905
858 1135 154 79 335 132 559 164 73 11 363 -4 459 -24z"/>
<path d="M1525 2871 c-92 -24 -173 -90 -215 -176 -34 -69 -35 -198 -2 -265 34
-71 75 -114 144 -151 58 -31 70 -34 148 -33 72 0 93 4 136 26 75 40 107 70
145 140 31 58 34 70 34 148 0 78 -3 90 -34 148 -57 104 -144 160 -260 167 -36
2 -79 1 -96 -4z"/>
<path d="M2485 2871 c-92 -24 -173 -90 -215 -176 -34 -69 -35 -198 -2 -265 34
-71 75 -114 144 -151 58 -31 70 -34 148 -33 72 0 93 4 136 26 75 40 107 70
145 140 31 58 34 70 34 148 0 78 -3 90 -34 148 -57 104 -144 160 -260 167 -36
2 -79 1 -96 -4z"/>
<path d="M3445 2871 c-92 -24 -173 -90 -215 -176 -34 -69 -35 -198 -2 -265 34
-71 75 -114 144 -151 58 -31 70 -34 148 -33 72 0 93 4 136 26 75 40 107 70
145 140 31 58 34 70 34 148 0 78 -3 90 -34 148 -57 104 -144 160 -260 167 -36
2 -79 1 -96 -4z"/>
</g>
</svg>
