<?xml version="1.0" standalone="no"?>
<!DOCTYPE svg PUBLIC "-//W3C//DTD SVG 20010904//EN"
 "http://www.w3.org/TR/2001/REC-SVG-20010904/DTD/svg10.dtd">
<svg version="1.0" xmlns="http://www.w3.org/2000/svg"
 width="512.000000pt" height="512.000000pt" viewBox="0 0 512.000000 512.000000"
 preserveAspectRatio="xMidYMid meet">

<g transform="translate(0.000000,512.000000) scale(0.100000,-0.100000)"
fill="#000000" stroke="none">
<path d="M2502 5104 c-39 -20 -74 -64 -91 -113 -7 -22 -11 -125 -11 -290 0
-284 4 -305 69 -366 28 -26 40 -30 91 -30 54 0 62 3 94 34 64 62 67 84 64 381
-3 236 -5 269 -22 303 -39 78 -127 115 -194 81z"/>
<path d="M1303 4780 c-56 -34 -80 -104 -63 -184 16 -79 235 -451 289 -493 61
-47 113 -59 167 -38 50 19 71 48 83 112 14 72 -5 120 -124 328 -122 212 -147
245 -209 274 -53 26 -102 27 -143 1z"/>
<path d="M3673 4779 c-24 -11 -55 -35 -71 -53 -44 -50 -245 -406 -258 -458
-35 -131 51 -239 164 -209 83 23 116 61 243 281 121 209 147 276 133 336 -26
110 -113 152 -211 103z"/>
<path d="M430 3908 c-42 -29 -60 -61 -60 -111 0 -51 21 -97 62 -138 44 -44
409 -254 468 -269 50 -13 111 -7 150 17 87 51 78 183 -19 264 -22 19 -127 83
-232 144 -189 108 -194 110 -263 113 -61 3 -76 1 -106 -20z"/>
<path d="M4495 3911 c-75 -34 -390 -222 -418 -249 -86 -81 -89 -207 -7 -255
39 -24 100 -30 150 -17 59 15 424 225 468 269 41 41 62 87 62 138 0 50 -18 82
-59 110 -44 29 -137 31 -196 4z"/>
<path d="M2344 3854 c-483 -81 -889 -443 -1004 -895 -51 -198 -49 -441 5 -652
45 -175 104 -296 275 -557 182 -280 212 -346 229 -513 14 -140 47 -195 182
-298 33 -26 33 -27 17 -46 -29 -32 -23 -81 15 -117 l33 -31 -33 -31 c-43 -41
-43 -73 0 -120 l33 -36 -33 -33 c-46 -46 -45 -82 6 -128 21 -19 43 -36 50 -38
8 -3 5 -16 -8 -42 -16 -31 -17 -44 -9 -68 20 -57 96 -103 223 -135 55 -14 76
-25 105 -55 33 -34 88 -59 134 -59 43 0 103 27 136 61 27 28 49 39 95 49 82
18 174 61 208 97 33 35 38 80 14 117 -16 24 -16 25 18 46 73 45 86 106 35 155
l-30 29 32 33 c42 44 42 83 -1 127 l-32 33 30 31 c37 36 40 77 11 115 l-20 25
49 36 c97 71 161 171 161 252 0 57 18 150 41 214 26 72 64 138 164 290 249
378 309 525 337 826 34 357 -79 684 -324 941 -192 201 -445 333 -720 378 -113
18 -314 18 -424 -1z m481 -349 c383 -113 640 -421 662 -795 10 -177 -29 -365
-111 -530 -24 -47 -96 -166 -161 -265 -183 -279 -238 -402 -265 -594 -12 -85
-24 -102 -92 -137 -124 -63 -322 -84 -459 -49 -75 19 -178 67 -201 92 -10 11
-21 53 -28 101 -25 182 -84 315 -261 582 -139 210 -196 318 -233 440 -135 452
44 887 449 1089 159 79 267 101 465 97 121 -3 160 -8 235 -31z"/>
<path d="M178 2756 c-84 -30 -128 -82 -128 -150 0 -54 30 -98 92 -132 l53 -29
265 0 c254 0 267 1 306 22 131 70 138 199 15 271 l-46 27 -260 2 c-200 2 -269
0 -297 -11z"/>
<path d="M4379 2757 c-132 -49 -169 -170 -77 -253 62 -57 72 -59 358 -59 l265
0 53 29 c62 35 92 78 92 133 0 52 -33 101 -90 133 -44 25 -48 25 -305 27 -196
2 -269 -1 -296 -10z"/>
<path d="M875 1818 c-48 -17 -407 -227 -438 -257 -63 -58 -85 -152 -50 -212
10 -16 37 -39 61 -51 71 -34 131 -22 266 53 247 139 330 193 360 236 59 85 41
195 -39 229 -40 16 -117 17 -160 2z"/>
<path d="M4083 1815 c-78 -34 -96 -144 -37 -228 30 -43 113 -97 360 -236 135
-75 195 -87 266 -53 24 12 51 35 61 51 35 60 13 154 -50 212 -33 32 -393 241
-442 257 -45 16 -119 14 -158 -3z"/>
</g>
</svg>
