<?xml version="1.0" standalone="no"?>
<!DOCTYPE svg PUBLIC "-//W3C//DTD SVG 20010904//EN"
 "http://www.w3.org/TR/2001/REC-SVG-20010904/DTD/svg10.dtd">
<svg version="1.0" xmlns="http://www.w3.org/2000/svg"
 width="512.000000pt" height="512.000000pt" viewBox="0 0 512.000000 512.000000"
 preserveAspectRatio="xMidYMid meet">

<g transform="translate(0.000000,512.000000) scale(0.100000,-0.100000)"
fill="#000000" stroke="none">
<path d="M2451 4594 c-93 -20 -163 -58 -237 -127 -68 -63 -102 -112 -137 -200
-20 -48 -22 -75 -27 -367 l-5 -315 -252 -3 -253 -2 0 -241 0 -241 -27 6 c-54
13 -175 76 -233 122 -136 107 -250 316 -250 457 0 69 6 67 -181 67 -130 0
-169 -3 -169 -13 0 -7 5 -51 10 -97 30 -239 126 -437 294 -606 135 -135 290
-224 469 -269 l92 -23 7 -53 c3 -30 6 -71 7 -91 l1 -38 -525 0 -525 0 0 -170
0 -170 556 -2 557 -3 33 -125 c18 -69 33 -130 34 -137 0 -6 -30 -25 -67 -43
-119 -55 -262 -158 -368 -265 -241 -240 -384 -560 -397 -885 l-3 -75 170 0
170 0 6 85 c22 294 179 571 422 744 61 43 186 111 191 104 2 -1 22 -46 46 -98
84 -189 219 -419 355 -605 78 -107 237 -295 304 -360 l41 -39 41 39 c67 65
226 253 304 360 136 186 271 416 355 605 24 52 44 97 46 98 5 7 130 -61 191
-104 239 -170 400 -452 421 -739 l7 -90 170 0 170 0 -3 75 c-19 476 -324 935
-764 1151 -38 18 -68 38 -68 44 1 5 16 66 34 135 l33 125 557 3 556 2 0 170 0
170 -525 0 -525 0 1 38 c1 20 4 61 7 91 l7 53 92 23 c179 45 334 134 469 269
168 169 264 367 294 606 5 46 10 90 10 97 0 10 -39 13 -169 13 -187 0 -181 2
-181 -67 0 -141 -114 -350 -250 -457 -58 -46 -179 -109 -232 -122 l-28 -6 0
241 0 241 -252 2 -253 3 -5 310 c-7 346 -10 365 -78 471 -78 120 -192 200
-327 229 -85 18 -130 18 -214 -1z m151 -334 c48 -14 97 -55 114 -97 11 -25 14
-98 14 -308 l0 -275 -170 0 -170 0 0 275 c0 296 3 318 53 363 23 21 86 51 112
52 6 0 27 -5 47 -10z m638 -1237 c0 -404 -51 -722 -171 -1069 -84 -243 -192
-467 -326 -674 -65 -100 -175 -250 -183 -250 -8 0 -118 150 -183 250 -134 207
-242 431 -326 674 -120 347 -171 665 -171 1069 l0 217 680 0 680 0 0 -217z"/>
</g>
</svg>
